<?xml version="1.0" encoding="UTF-8" standalone="no"?>
<!-- Created with Inkscape (http://www.inkscape.org/) -->

<svg
   xmlns:dc="http://purl.org/dc/elements/1.1/"
   xmlns:cc="http://creativecommons.org/ns#"
   xmlns:rdf="http://www.w3.org/1999/02/22-rdf-syntax-ns#"
   xmlns:svg="http://www.w3.org/2000/svg"
   xmlns="http://www.w3.org/2000/svg"
   xmlns:sodipodi="http://sodipodi.sourceforge.net/DTD/sodipodi-0.dtd"
   xmlns:inkscape="http://www.inkscape.org/namespaces/inkscape"
   width="233.51999"
   height="33.191002"
   viewBox="0 0 233.51999 33.191"
   id="svg5337"
   version="1.1"
   inkscape:version="0.91 r13725"
   sodipodi:docname="jean coutu.svg">
  <defs
     id="defs5339" />
  <sodipodi:namedview
     id="base"
     pagecolor="#ffffff"
     bordercolor="#666666"
     borderopacity="1.0"
     inkscape:pageopacity="0.0"
     inkscape:pageshadow="2"
     inkscape:zoom="3.8837868"
     inkscape:cx="116.51"
     inkscape:cy="16.3455"
     inkscape:document-units="px"
     inkscape:current-layer="layer1"
     showgrid="false"
     fit-margin-top="0"
     fit-margin-left="0"
     fit-margin-right="0"
     fit-margin-bottom="0"
     units="px"
     inkscape:window-width="1280"
     inkscape:window-height="744"
     inkscape:window-x="-4"
     inkscape:window-y="-4"
     inkscape:window-maximized="1" />
  <metadata
     id="metadata5342">
    <rdf:RDF>
      <cc:Work
         rdf:about="">
        <dc:format>image/svg+xml</dc:format>
        <dc:type
           rdf:resource="http://purl.org/dc/dcmitype/StillImage" />
        <dc:title></dc:title>
      </cc:Work>
    </rdf:RDF>
  </metadata>
  <g
     inkscape:label="Layer 1"
     inkscape:groupmode="layer"
     id="layer1"
     transform="translate(-1169.2043,-789.80242)">
    <g
       id="g5346"
       transform="translate(1160.9643,780.66242)">
	<path
   id="path5348"
   d="m 46.32,37.494 c 0,2.305 -1.865,4.175 -4.165,4.175 l -28.924,0 c -2.299,0 -4.165,-1.87 -4.165,-4.175 l 0,-23.52 c 0,-2.302 1.866,-4.173 4.165,-4.173 l 28.924,0 c 2.3,0 4.165,1.871 4.165,4.173 l 0,23.52 z"
   inkscape:connector-curvature="0"
   style="fill:#ffffff" />

	<path
   id="path5350"
   d="m 45.91,37.494 c 0,2.077 -1.685,3.765 -3.755,3.765 l -28.924,0 c -2.071,0 -3.754,-1.688 -3.754,-3.765 l 0,-23.52 c 0,-2.074 1.684,-3.76 3.754,-3.76 l 28.924,0 c 1,0 1.945,0.388 2.654,1.099 0.709,0.711 1.101,1.656 1.101,2.661 l 0,23.52 z m 0.823,-23.52 c 0,-1.222 -0.476,-2.374 -1.342,-3.241 C 44.527,9.867 43.378,9.391 42.156,9.391 l -28.925,0 c -2.524,0 -4.579,2.055 -4.579,4.583 l 0,23.521 c 0,2.53 2.054,4.586 4.579,4.586 l 28.924,0 c 2.523,0 4.578,-2.056 4.578,-4.586 l 0,-23.521 z"
   inkscape:connector-curvature="0"
   style="fill:#004990" />

	<path
   id="path5352"
   d="m 17.461,15.148 c 0,0 0.417,-2.853 2.576,-2.716 l 14.525,0 c 0,0 1.264,-0.137 1.792,1.472 0,0 5.518,19.024 6.522,22.454 0.369,1.258 -0.457,2.711 -1.623,2.711 -1.395,0 -24.917,0 -26.653,0 -1.406,0 -2.454,-1.276 -2.127,-2.646 1.803,-7.554 4.988,-21.275 4.988,-21.275 z"
   inkscape:connector-curvature="0"
   style="fill:#ffffff" />

	<path
   id="path5354"
   d="m 17.704,15.183 0,0 c 0.017,-0.107 0.414,-2.624 2.316,-2.503 0.017,0 14.542,0 14.542,0 l 0.015,0 0.012,-10e-4 c 0.041,-0.004 1.076,-0.083 1.528,1.302 -0.003,-0.008 6.522,22.448 6.522,22.448 0.178,0.607 0.052,1.3 -0.326,1.81 -0.284,0.376 -0.662,0.584 -1.061,0.584 l -26.652,0 c -0.607,0 -1.167,-0.269 -1.535,-0.736 -0.358,-0.451 -0.485,-1.037 -0.352,-1.607 1.781,-7.469 4.955,-21.138 4.991,-21.297 z m -5.472,21.182 c -0.168,0.716 -0.006,1.455 0.447,2.026 0.46,0.588 1.161,0.927 1.921,0.927 l 26.653,0 c 0.561,0 1.074,-0.28 1.454,-0.787 0.47,-0.631 0.626,-1.489 0.407,-2.242 L 36.59,13.835 c -0.584,-1.784 -2.04,-1.65 -2.052,-1.647 l 0.025,-0.003 -14.526,0 c -1.871,-0.118 -2.664,1.863 -2.82,2.924 -0.029,0.12 -3.202,13.788 -4.985,21.256 z"
   inkscape:connector-curvature="0"
   style="fill:#004990" />

	<path
   id="path5356"
   d="m 15.976,30.97 c 0.317,0 2.582,0 3.356,0 0.426,0 0.629,0.537 0.552,1.183 -0.052,0.432 -0.076,0.544 -0.076,0.544 0,0 -0.075,0.797 0.674,0.857 0.74,0.056 0.825,-0.623 0.825,-0.623 0,0 1.149,-6.887 1.225,-7.615 0.076,-0.725 0.448,-1.102 1.085,-1.102 0.45,0 1.868,0 2.292,0 0.703,0 1.072,0.476 1.079,1.244 0.004,0.46 -0.091,10.359 -0.091,10.971 0.003,0.659 -0.503,1.153 -0.992,1.153 0,0 -10.319,0 -10.747,0 -0.426,0 -1.333,-0.213 -1.081,-1.392 0,0 0.727,-3.403 0.871,-4.056 0.14,-0.655 0.329,-1.164 1.028,-1.164 z"
   inkscape:connector-curvature="0"
   style="fill:#e03a3e" />

	<path
   id="path5358"
   d="m 15.976,31.134 3.356,0 c 0.089,0 0.163,0.031 0.225,0.104 0.148,0.166 0.21,0.51 0.163,0.895 -0.049,0.414 -0.072,0.531 -0.072,0.531 l -0.002,0.009 c 0,0.003 0,0.01 0,0.01 -0.002,0.018 -0.039,0.438 0.217,0.741 0.144,0.174 0.348,0.271 0.607,0.293 0.708,0.056 0.963,-0.477 1,-0.766 0.043,-0.274 1.147,-6.892 1.225,-7.617 0.065,-0.643 0.368,-0.956 0.921,-0.956 l 2.292,0 c 0.75,0 0.91,0.589 0.914,1.084 0.002,0.237 -0.021,3.04 -0.047,5.749 l -0.043,5.219 c 0.001,0.284 -0.109,0.555 -0.301,0.747 -0.155,0.155 -0.347,0.244 -0.527,0.244 l -10.746,0 c -0.26,0 -0.606,-0.085 -0.799,-0.322 -0.159,-0.201 -0.205,-0.494 -0.121,-0.871 l 0.87,-4.059 c 0.147,-0.687 0.324,-1.035 0.868,-1.035 z m -1.187,0.965 -0.871,4.059 c -0.104,0.479 -0.042,0.863 0.189,1.146 0.33,0.412 0.888,0.444 1.051,0.444 l 10.747,0 c 0.269,0 0.544,-0.126 0.762,-0.342 0.251,-0.252 0.395,-0.608 0.395,-0.978 l 0.042,-5.216 C 27.13,28.5 27.155,25.697 27.152,25.457 27.146,24.575 26.678,24.05 25.91,24.05 l -2.292,0 c -0.72,0 -1.166,0.445 -1.248,1.248 -0.073,0.715 -1.212,7.537 -1.224,7.605 -0.01,0.061 -0.088,0.527 -0.651,0.482 -0.167,-0.011 -0.292,-0.068 -0.379,-0.172 -0.168,-0.197 -0.144,-0.5 -0.144,-0.504 l -0.002,0.02 c 0.001,-0.004 0.024,-0.125 0.078,-0.56 0.059,-0.49 -0.032,-0.908 -0.246,-1.15 -0.124,-0.141 -0.285,-0.216 -0.469,-0.216 l -3.356,0 c -0.84,0.002 -1.055,0.67 -1.188,1.296 z"
   inkscape:connector-curvature="0"
   style="fill:#004990" />

	<path
   id="path5360"
   d="m 34.978,31.646 0.165,1.123 c 0.063,0.461 -0.106,0.848 -0.629,0.872 -0.607,0.029 -0.823,-0.326 -0.894,-0.816 l -0.654,-4.831 c -0.065,-0.461 0.047,-0.932 0.6,-0.932 0.514,0 0.739,0.27 0.802,0.741 l 0.238,1.035 c 0.066,0.373 0.307,0.492 0.552,0.492 l 3.274,0 c 0.496,0 0.818,-0.33 0.675,-0.844 -0.184,-0.652 -0.742,-2.32 -1.048,-3.316 -0.174,-0.563 -0.582,-0.957 -0.996,-0.957 l -7.554,0 c -0.77,0 -1.119,0.85 -1.098,1.244 0.042,0.839 0.16,10.025 0.194,11.053 0.03,0.72 0.65,1.08 1.08,1.08 l 10.559,-0.018 c 0.771,0 1.31,-0.418 1.025,-1.441 C 41.007,35.19 40.166,32.146 40,31.685 39.862,31.292 39.36,30.978 39.066,30.978 l -3.519,0 c -0.317,10e-4 -0.595,0.412 -0.569,0.668 z"
   inkscape:connector-curvature="0"
   style="fill:#e03a3e" />

	<path
   id="path5362"
   d="m 34.814,31.668 0.163,1.126 c 0.03,0.224 -0.004,0.412 -0.099,0.525 -0.08,0.097 -0.205,0.151 -0.375,0.158 -0.441,0.021 -0.649,-0.175 -0.724,-0.677 0,0.005 -0.651,-4.828 -0.651,-4.828 -0.037,-0.281 -0.002,-0.501 0.103,-0.623 0.073,-0.082 0.181,-0.125 0.333,-0.125 0.397,0 0.582,0.174 0.643,0.602 0.002,0.015 0.237,1.049 0.237,1.049 0.067,0.392 0.328,0.621 0.712,0.621 l 3.274,0 c 0.313,0 0.571,-0.113 0.725,-0.317 0.146,-0.193 0.186,-0.453 0.106,-0.734 -0.106,-0.377 -0.328,-1.073 -0.568,-1.81 L 38.21,25.123 c -0.192,-0.63 -0.667,-1.071 -1.15,-1.071 l -7.554,0 c -0.32,0 -0.607,0.126 -0.835,0.366 -0.3,0.316 -0.441,0.767 -0.427,1.051 0.022,0.447 0.066,3.277 0.109,6.016 0.035,2.344 0.071,4.555 0.087,5.032 0.034,0.844 0.763,1.236 1.242,1.236 l 10.559,-0.018 c 0.479,0 0.847,-0.146 1.059,-0.428 0.226,-0.293 0.266,-0.704 0.125,-1.221 L 41.339,35.777 C 41.003,34.568 40.301,32.051 40.153,31.63 39.995,31.178 39.426,30.813 39.064,30.813 l -3.519,0 c -0.174,0 -0.353,0.091 -0.499,0.247 -0.159,0.181 -0.252,0.416 -0.232,0.608 z m 0.731,-0.527 3.519,0 c 0.227,0 0.666,0.268 0.781,0.601 0.144,0.411 0.87,3.015 1.178,4.126 l 0.085,0.308 c 0.116,0.412 0.093,0.727 -0.067,0.935 -0.188,0.248 -0.54,0.3 -0.8,0.3 l -10.559,0.017 c -0.368,0 -0.893,-0.319 -0.914,-0.921 -0.019,-0.473 -0.052,-2.685 -0.087,-5.026 -0.043,-2.74 -0.087,-5.577 -0.108,-6.026 -0.011,-0.18 0.088,-0.55 0.334,-0.809 0.169,-0.177 0.369,-0.267 0.599,-0.267 l 7.554,0 c 0.335,0 0.689,0.354 0.837,0.838 l 0.483,1.521 c 0.237,0.731 0.462,1.426 0.565,1.795 0.049,0.184 0.034,0.338 -0.052,0.451 -0.091,0.121 -0.255,0.186 -0.464,0.186 l -3.274,0 c -0.223,0 -0.35,-0.115 -0.39,-0.356 -0.002,-0.009 -0.238,-1.044 -0.238,-1.044 -0.08,-0.571 -0.403,-0.87 -0.963,-0.87 -0.25,0 -0.445,0.082 -0.581,0.236 -0.215,0.252 -0.217,0.619 -0.181,0.885 l 0.653,4.828 c 0.097,0.674 0.447,0.987 1.063,0.957 0.261,-0.013 0.475,-0.106 0.611,-0.277 0.157,-0.187 0.213,-0.457 0.17,-0.781 L 35.14,31.622 c -0.01,-0.072 0.039,-0.216 0.148,-0.338 0.084,-0.092 0.176,-0.143 0.257,-0.143 z"
   inkscape:connector-curvature="0"
   style="fill:#004990" />

	<path
   id="path5364"
   d="m 46.733,38.134 c 0,2.178 -1.768,3.946 -3.95,3.946 l -30.344,0 c -2.182,0 -3.949,-1.769 -3.949,-3.946 l 0,-24.754 c 0,-2.183 1.767,-3.951 3.949,-3.951 l 30.344,0 c 2.182,0 3.95,1.768 3.95,3.951 l 0,24.754 z"
   inkscape:connector-curvature="0"
   style="fill:none" />

	<path
   id="path5366"
   d="m 46.733,38.461 c 0,2 -1.624,3.619 -3.62,3.619 l -31.005,0 c -1.996,0 -3.618,-1.619 -3.618,-3.619 l 0,-25.412 c 0,-1.998 1.622,-3.619 3.618,-3.619 l 31.005,0 c 1.996,0 3.62,1.621 3.62,3.619 l 0,25.412 z"
   inkscape:connector-curvature="0"
   style="fill:none" />

	<path
   id="path5368"
   d="m 20.491,28.677 c 0.461,-2.516 0.905,-4.014 1.107,-5.165 0.122,-0.694 0.53,-0.987 1.11,-0.987 l 13.508,0 c 1.524,0 0.953,-1.21 0.953,-1.21 l -1.882,-6.442 c 0,0 -0.167,-0.917 -1.037,-0.917 l -14.398,0 c 0,0 -0.772,0.016 -1.027,1.058 l -3.021,13.029 c 0,0 -0.437,1.289 0.783,1.289 l 3.035,0 c 0.614,-0.001 0.795,-0.261 0.869,-0.655 z M 32.702,18.312 c 0,0.418 -0.333,0.752 -0.752,0.752 l -8.495,0 c -0.417,0 -0.754,-0.334 -0.754,-0.752 l 0,0 c 0,-0.417 0.336,-0.754 0.754,-0.754 l 8.495,0 c 0.419,0 0.752,0.338 0.752,0.754 l 0,0 z"
   inkscape:connector-curvature="0"
   style="fill:#0099d8" />

	<path
   id="path5370"
   d="m 20.653,28.707 c 0.266,-1.464 0.531,-2.585 0.743,-3.487 0.149,-0.641 0.278,-1.195 0.367,-1.68 0.099,-0.569 0.409,-0.849 0.946,-0.849 l 13.508,0 c 0.542,0 0.913,-0.146 1.099,-0.438 0.271,-0.43 0.013,-0.982 0.002,-1.007 l 0.009,0.024 -1.881,-6.444 0.003,0.014 c -0.067,-0.363 -0.401,-1.05 -1.198,-1.05 l -14.399,0 c -0.039,0 -0.906,0.029 -1.188,1.182 -0.001,0.003 -3.021,13.033 -3.021,13.033 l 0.004,-0.018 c -0.009,0.03 -0.232,0.701 0.087,1.146 0.17,0.239 0.458,0.363 0.851,0.363 l 3.035,0 c 0.613,0.002 0.929,-0.241 1.033,-0.789 z m -1.031,0.461 -3.035,0 c -0.281,0 -0.478,-0.076 -0.583,-0.226 -0.223,-0.306 -0.044,-0.842 -0.042,-0.848 0.005,-0.016 3.021,-13.044 3.021,-13.044 0.221,-0.898 0.846,-0.931 0.873,-0.931 -0.003,0 14.395,0 14.395,0 0.717,0 0.87,0.751 0.875,0.783 l 0.001,0.008 0.003,0.009 1.88,6.442 0.004,0.013 0.005,0.011 c 0.001,0.004 0.191,0.417 0.015,0.689 -0.121,0.189 -0.397,0.286 -0.818,0.286 l -13.508,0 c -0.702,0 -1.143,0.388 -1.272,1.122 -0.083,0.476 -0.213,1.024 -0.36,1.662 -0.213,0.905 -0.477,2.032 -0.748,3.502 -0.061,0.339 -0.192,0.522 -0.706,0.522 z"
   inkscape:connector-curvature="0"
   style="fill:#004990" />

	<path
   id="path5372"
   d="m 32.539,18.312 c 0,0.326 -0.265,0.59 -0.589,0.59 l -8.495,0 c -0.327,0 -0.592,-0.264 -0.592,-0.59 0,-0.326 0.265,-0.589 0.592,-0.589 l 8.495,0 c 0.324,0 0.589,0.263 0.589,0.589 z m 0.327,0 c 0,-0.505 -0.41,-0.919 -0.916,-0.919 l -8.495,0 c -0.507,0 -0.919,0.414 -0.919,0.919 0,0.507 0.412,0.917 0.919,0.917 l 8.495,0 c 0.507,0 0.916,-0.41 0.916,-0.917 z"
   inkscape:connector-curvature="0"
   style="fill:#004990" />

	<path
   id="path5374"
   d="m 241.122,36.486 c 0,2.863 -2.343,5.201 -5.202,5.201 l -176.456,0 c -2.858,0 -5.199,-2.338 -5.199,-5.201 l 0,-21.507 c 0,-2.862 2.341,-5.202 5.199,-5.202 l 176.456,0 c 2.859,0 5.202,2.339 5.202,5.202 l 0,21.507 z"
   inkscape:connector-curvature="0"
   style="clip-rule:evenodd;fill:#ffffff;fill-rule:evenodd" />

	<path
   id="path5376"
   d="m 240.731,36.486 c 0,2.655 -2.159,4.813 -4.812,4.813 l -176.455,0 c -2.649,0 -4.81,-2.158 -4.81,-4.813 l 0,-21.507 c 0,-2.654 2.16,-4.811 4.81,-4.811 l 176.456,0 c 2.652,0 4.812,2.157 4.812,4.811 l 0,21.507 z m 0.779,-21.507 c 0,-3.085 -2.509,-5.589 -5.59,-5.589 l -176.456,0 c -3.08,0 -5.588,2.504 -5.588,5.589 l 0,21.507 c 0,3.086 2.508,5.594 5.588,5.594 l 176.456,0 c 3.081,0 5.59,-2.508 5.59,-5.594 l 0,-21.507 z"
   inkscape:connector-curvature="0"
   style="clip-rule:evenodd;fill:#004990;fill-rule:evenodd" />

	<path
   id="path5378"
   d="M 78.914,28.814 C 78.89,39.822 59.037,41.545 59.049,26.314 l 7.362,0 0,1.656 c 0.003,2.628 4.479,2.666 4.5,0 l 0.011,-1.648 0.006,0 0,-13.298 7.986,0 0,15.79 0,0 z"
   inkscape:connector-curvature="0"
   style="clip-rule:evenodd;fill:#e03a3e;fill-rule:evenodd" />

	<path
   id="path5380"
   d="m 78.435,28.814 c -0.011,5.28 -4.782,8.123 -9.264,8.114 -4.454,-0.009 -9.649,-2.792 -9.644,-10.615 l -0.479,0.478 7.362,0 -0.48,-0.478 0,1.656 c 0,1.611 1.37,2.459 2.722,2.465 1.352,0.004 2.723,-0.842 2.734,-2.462 0,-0.003 0.013,-1.651 0.013,-1.651 l -0.478,0.477 0.478,0 c 0.003,0 0.003,-0.477 0.003,-0.477 l 0,-13.297 -0.475,0.478 7.986,0 -0.479,-0.478 0,15.79 z m 0.955,0 0,-15.79 0,-0.48 -0.477,0 -7.986,0 -0.481,0 0,0.48 0,13.297 0.481,-0.481 -0.479,0 c -0.002,0 -0.007,0.475 -0.007,0.475 l -0.01,1.648 c -0.009,1.049 -0.9,1.517 -1.776,1.511 C 67.803,29.471 66.89,29 66.89,27.969 l 0,-1.656 0,-0.477 -0.479,0 -7.362,0 -0.479,0 0,0.477 c -0.006,7.981 5.319,11.561 10.599,11.57 4.945,0.01 10.208,-3.166 10.221,-9.069 z"
   inkscape:connector-curvature="0"
   style="clip-rule:evenodd;fill:#004990;fill-rule:evenodd" />

	<path
   id="path5382"
   d="m 88.171,29.745 c 0.119,2.125 1.921,2.616 4.11,2.616 2.038,0 3.871,-0.391 5.052,-1.08 l 0,4.415 c -1.98,0.689 -4.346,0.982 -6.946,0.982 -6.236,0 -9.542,-3.335 -9.542,-9.223 0,-5.723 3.306,-8.603 9.542,-8.603 5.971,0 8.068,4.123 8.068,9.876 l 0,1.016 -10.284,0 z m 3.843,-3.596 c 0,-1.31 -0.175,-3.371 -1.864,-3.371 -1.711,0 -2.094,2.026 -2.007,3.371 l 3.871,0 z"
   inkscape:connector-curvature="0"
   style="fill:#e03a3e" />

	<path
   id="path5384"
   d="m 87.694,29.768 c 0.172,3.071 3.494,3.071 4.587,3.071 2.113,0 4.042,-0.417 5.293,-1.144 l -0.721,-0.414 0,4.415 0.323,-0.451 c -1.826,0.635 -4.107,0.954 -6.79,0.954 -5.928,0 -9.065,-3.021 -9.065,-8.743 0,-5.392 3.05,-8.126 9.065,-8.126 5.108,0 7.59,3.073 7.59,9.399 l 0,1.016 0.478,-0.481 -10.283,0 -0.504,0 0.027,0.504 z m 11.241,-0.023 0,-1.016 c 0,-6.774 -2.956,-10.355 -8.548,-10.355 -6.556,0 -10.023,3.141 -10.023,9.082 0,6.256 3.562,9.701 10.023,9.701 2.789,0 5.177,-0.339 7.103,-1.009 l 0.322,-0.113 0,-0.339 0,-4.415 0,-0.83 -0.721,0.415 c -1.108,0.648 -2.864,1.019 -4.81,1.019 -2.461,0 -3.548,-0.649 -3.63,-2.169 l -0.479,0.506 10.284,0 0.48,0 0,-0.477 z"
   inkscape:connector-curvature="0"
   style="fill:#004990" />

	<path
   id="path5386"
   d="m 92.492,26.149 c 0,-2.553 -0.789,-3.849 -2.343,-3.849 -0.635,0 -1.189,0.232 -1.607,0.682 -0.943,1.004 -0.912,2.701 -0.877,3.195 l 0.029,0.445 0.448,0 3.872,0 0.479,0 0,-0.473 z m -3.873,-0.035 c -0.05,-0.781 0.082,-1.903 0.624,-2.479 0.237,-0.256 0.534,-0.376 0.907,-0.376 0.345,0 1.386,0 1.386,2.89 l 0.478,-0.478 -3.872,0 0.477,0.443 z"
   inkscape:connector-curvature="0"
   style="fill:#004990" />

	<path
   id="path5388"
   d="m 101.811,19.833 c 2.214,-0.687 3.546,-0.979 6.441,-0.979 4.257,0 9.43,0.85 9.43,7.062 l 0,10.37 -6.917,0 0,-2.453 -0.06,0 c -1.031,1.931 -2.924,2.847 -5.022,2.847 -2.868,0 -5.644,-1.442 -5.644,-5.002 0,-5.235 4.254,-6.285 7.949,-6.285 1.031,0 2.216,0.168 2.896,0.231 -0.03,-2.19 -2.071,-2.452 -3.931,-2.452 -1.773,0 -3.664,0.622 -5.143,1.436 l 0,-4.775 z m 9.073,8.961 -0.74,0 c -1.537,0 -3.31,0.164 -3.31,1.931 0,1.178 0.59,1.637 1.745,1.637 1.535,0 2.305,-1.568 2.305,-3.041 l 0,-0.527 z"
   inkscape:connector-curvature="0"
   style="fill:#e03a3e" />

	<path
   id="path5390"
   d="m 101.952,20.291 c 2.107,-0.653 3.414,-0.961 6.3,-0.961 6.191,0 8.95,2.032 8.95,6.585 l 0,10.37 0.48,-0.479 -6.917,0 0.478,0.479 0,-2.453 0,-0.477 -0.478,0 -0.06,0 -0.286,0 -0.135,0.25 c -0.896,1.672 -2.529,2.594 -4.602,2.594 -2.497,0 -5.166,-1.189 -5.166,-4.522 0,-3.908 2.444,-5.807 7.471,-5.807 0.768,0 1.617,0.095 2.298,0.171 l 0.553,0.056 0.533,0.058 c -0.004,0 -0.011,-0.537 -0.011,-0.537 -0.036,-2.927 -3.213,-2.927 -4.406,-2.927 -1.692,0 -3.65,0.547 -5.374,1.499 l 0.711,0.418 0,-4.775 -0.339,0.458 z m 0.093,4.735 c 1.583,-0.872 3.372,-1.378 4.909,-1.378 2.466,0 3.431,0.557 3.45,1.981 l 0.525,-0.481 -0.537,-0.059 c -0.67,-0.073 -1.584,-0.172 -2.404,-0.172 -6.965,0 -8.427,3.674 -8.427,6.76 0,4.044 3.294,5.48 6.122,5.48 2.406,0 4.389,-1.131 5.443,-3.101 l -0.42,0.252 0.06,0 -0.478,-0.477 0,2.453 0,0.479 0.478,0 6.917,0 0.475,0 0,-0.479 0,-10.37 c 0,-7.541 -7.453,-7.541 -9.905,-7.541 -3.019,0 -4.382,0.321 -6.582,1.002 l -0.338,0.106 0,0.351 0,4.775 0,0.814 0.712,-0.395 z"
   inkscape:connector-curvature="0"
   style="fill:#004990" />

	<path
   id="path5392"
   d="m 110.884,28.317 -0.74,0 c -1.133,0 -3.787,0 -3.787,2.407 0,1.403 0.747,2.114 2.222,2.114 0.863,0 1.617,-0.42 2.125,-1.183 0.425,-0.633 0.655,-1.463 0.655,-2.336 l 0,-0.526 0,-0.477 -0.475,0 z m -0.481,1.003 c 0,0.673 -0.18,1.335 -0.496,1.807 -0.334,0.502 -0.783,0.758 -1.328,0.758 -0.947,0 -1.266,-0.293 -1.266,-1.16 0,-1.058 0.769,-1.452 2.831,-1.452 l 0.74,0 -0.481,-0.479 0,0.526 z"
   inkscape:connector-curvature="0"
   style="fill:#004990" />

	<path
   id="path5394"
   d="m 120.102,19.247 7.032,0 0,2.944 0.06,0 c 0.884,-2.393 2.924,-3.337 5.024,-3.337 3.96,0 5.407,2.292 5.407,5.592 l 0,11.839 -7.446,0 0,-9.81 c 0,-0.982 0,-2.321 -1.3,-2.321 -1.331,0 -1.331,1.338 -1.331,2.321 l 0,9.81 -7.446,0 0,-17.038 z"
   inkscape:connector-curvature="0"
   style="fill:#e03a3e" />

	<path
   id="path5396"
   d="m 120.102,19.722 7.032,0 -0.475,-0.475 0,2.944 0,0.477 0.475,0 0.06,0 0.33,0 0.12,-0.311 c 0.974,-2.635 3.283,-3.027 4.574,-3.027 3.316,0 4.929,1.675 4.929,5.116 l 0,11.839 0.479,-0.479 -7.446,0 0.477,0.479 0,-9.81 c 0,-0.978 0,-2.801 -1.776,-2.801 -1.811,0 -1.811,1.823 -1.811,2.801 l 0,9.81 0.479,-0.479 -7.446,0 0.478,0.479 0,-17.038 -0.479,0.475 z m 0,17.043 7.446,0 0.479,0 0,-0.479 0,-9.81 c 0,-1.275 0.122,-1.846 0.852,-1.846 0.639,0 0.82,0.415 0.82,1.846 l 0,9.81 0,0.479 0.479,0 7.446,0 0.479,0 0,-0.479 0,-11.84 c 0,-3.972 -2.034,-6.072 -5.886,-6.072 -2.618,0 -4.612,1.33 -5.473,3.647 l 0.448,-0.309 -0.06,0 0.481,0.478 0,-2.944 0,-0.48 -0.481,0 -7.032,0 -0.479,0 0,0.48 0,17.038 0,0.479 0.481,0 z"
   inkscape:connector-curvature="0"
   style="fill:#004990" />

	<path
   id="path5398"
   d="m 160.719,35.729 c -1.475,0.459 -3.664,0.92 -5.674,0.92 -6.853,0 -12.351,-3.995 -12.351,-12.135 0,-7.656 5.73,-11.483 12.351,-11.483 2.19,0 3.487,0.293 5.617,0.721 l 0,6.017 c -1.305,-0.457 -2.63,-0.85 -3.963,-0.85 -3.369,0 -5.909,1.994 -5.909,5.725 0,3.923 2.368,5.919 5.644,5.919 1.451,0 2.838,-0.324 4.285,-0.888 l 0,6.054 z"
   inkscape:connector-curvature="0"
   style="fill:#e03a3e" />

	<path
   id="path5400"
   d="m 160.578,35.277 c -0.681,0.206 -3.076,0.89 -5.533,0.89 -5.74,0 -11.872,-3.062 -11.872,-11.652 0,-8.123 6.394,-11.003 11.872,-11.003 1.986,0 3.22,0.247 5.086,0.623 l 0.437,0.086 -0.387,-0.468 0,6.017 0.638,-0.451 c -1.294,-0.457 -2.691,-0.879 -4.119,-0.879 -3.88,0 -6.386,2.436 -6.386,6.204 0,3.944 2.347,6.395 6.12,6.395 1.424,0 2.838,-0.289 4.455,-0.912 l -0.647,-0.451 0,6.054 0.336,-0.453 z m -0.032,-6.045 c -1.504,0.58 -2.81,0.852 -4.112,0.852 -3.232,0 -5.164,-2.033 -5.164,-5.44 0,-3.237 2.082,-5.246 5.43,-5.246 1.285,0 2.587,0.395 3.803,0.823 l 0.638,0.223 0,-0.674 0,-6.017 0,-0.391 -0.383,-0.078 -0.437,-0.087 c -1.922,-0.388 -3.194,-0.644 -5.275,-0.644 -6.385,0 -12.83,3.698 -12.83,11.961 0,7.66 5.035,12.612 12.83,12.612 2.593,0 5.105,-0.716 5.816,-0.938 l 0.335,-0.105 0,-0.354 0,-6.054 0,-0.694 -0.651,0.251 z"
   inkscape:connector-curvature="0"
   style="fill:#004990" />

	<path
   id="path5402"
   d="m 172.025,18.82 c 6.203,0 9.573,2.879 9.573,8.604 0,5.886 -3.37,9.226 -9.573,9.226 -6.235,0 -9.541,-3.34 -9.541,-9.226 0,-5.724 3.306,-8.604 9.541,-8.604 z m 0,12.921 c 1.449,0 1.653,-1.83 1.653,-4.317 0,-2.027 -0.204,-3.696 -1.653,-3.696 -1.451,0 -1.627,1.669 -1.627,3.696 0,2.487 0.176,4.317 1.627,4.317 z"
   inkscape:connector-curvature="0"
   style="fill:#e03a3e" />

	<path
   id="path5404"
   d="m 172.025,19.3 c 6.035,0 9.096,2.733 9.096,8.124 0,5.639 -3.228,8.743 -9.096,8.743 -5.931,0 -9.064,-3.021 -9.064,-8.743 0,-5.391 3.049,-8.124 9.064,-8.124 z m -10.02,8.124 c 0,6.256 3.557,9.703 10.021,9.703 6.389,0 10.053,-3.539 10.053,-9.703 0,-5.942 -3.478,-9.082 -10.053,-9.082 -6.557,0 -10.021,3.139 -10.021,9.082 z"
   inkscape:connector-curvature="0"
   style="fill:#004990" />

	<path
   id="path5406"
   d="m 172.025,32.22 c 2.13,0 2.13,-2.886 2.13,-4.796 0,-1.458 0,-4.176 -2.13,-4.176 -2.103,0 -2.103,2.612 -2.103,4.176 0.001,2.023 0.001,4.796 2.103,4.796 z m -1.147,-4.796 c 0,-2.376 0.299,-3.216 1.147,-3.216 0.848,0 1.175,0.9 1.175,3.216 0,2.798 -0.315,3.838 -1.175,3.838 -0.848,0 -1.147,-1.006 -1.147,-3.838 z"
   inkscape:connector-curvature="0"
   style="fill:#004990" />

	<path
   id="path5408"
   d="m 201.043,36.255 -7.034,0 0,-2.945 -0.061,0 c -0.882,2.388 -2.923,3.34 -5.022,3.34 -3.958,0 -5.405,-2.292 -5.405,-5.596 l 0,-11.84 7.443,0 0,9.816 c 0,0.974 0,2.317 1.304,2.317 1.332,0 1.332,-1.344 1.332,-2.317 l 0,-9.816 7.443,0 0,17.041 z"
   inkscape:connector-curvature="0"
   style="fill:#e03a3e" />

	<path
   id="path5410"
   d="m 201.043,35.773 -7.034,0 0.479,0.481 0,-2.944 0,-0.479 -0.479,0 -0.061,0 -0.333,0 -0.115,0.312 c -0.974,2.634 -3.284,3.024 -4.574,3.024 -3.315,0 -4.924,-1.671 -4.924,-5.113 l 0,-11.84 -0.481,0.479 7.443,0 -0.477,-0.479 0,9.816 c 0,0.974 0,2.797 1.78,2.797 1.809,0 1.809,-1.823 1.809,-2.797 l 0,-9.816 -0.477,0.479 7.443,0 -0.48,-0.479 0,17.041 0.481,-0.482 z m 0,-17.037 -7.443,0 -0.483,0 0,0.478 0,9.816 c 0,1.27 -0.119,1.841 -0.849,1.841 -0.639,0 -0.824,-0.414 -0.824,-1.841 l 0,-9.816 0,-0.478 -0.479,0 -7.443,0 -0.479,0 0,0.478 0,11.84 c 0,3.972 2.037,6.073 5.884,6.073 2.62,0 4.613,-1.332 5.471,-3.651 l -0.448,0.313 0.061,0 -0.479,-0.479 0,2.945 0,0.479 0.479,0 7.034,0 0.479,0 0,-0.479 0,-17.041 0,-0.478 -0.481,0 z"
   inkscape:connector-curvature="0"
   style="fill:#004990" />

	<path
   id="path5412"
   d="m 206.148,19.214 0,-3.925 7.447,-2.522 0,6.447 3.368,0 0,4.904 -3.368,0 0,4.806 c 0,1.444 0.65,2.229 1.621,2.229 0.684,0 1.217,-0.099 1.747,-0.297 l 0,4.907 c -1.628,0.522 -3.282,0.887 -5.111,0.887 -3.844,0 -5.704,-2.131 -5.704,-6.646 l 0,-5.886 -2.632,0 0,-4.904 2.632,0 z"
   inkscape:connector-curvature="0"
   style="fill:#e03a3e" />

	<path
   id="path5414"
   d="m 206.628,19.214 0,-3.925 -0.326,0.454 7.446,-2.519 -0.632,-0.457 0,6.447 0,0.479 0.479,0 3.368,0 -0.481,-0.479 0,4.904 0.481,-0.477 -3.368,0 -0.479,0 0,0.477 0,4.806 c 0,1.996 1.086,2.705 2.101,2.705 0.72,0 1.305,-0.098 1.912,-0.324 l -0.646,-0.449 0,4.907 0.335,-0.454 c -1.853,0.593 -3.386,0.858 -4.965,0.858 -3.564,0 -5.225,-1.957 -5.225,-6.163 l 0,-5.886 0,-0.477 -0.479,0 -2.632,0 0.481,0.477 0,-4.904 -0.481,0.479 2.632,0 0.479,0 0,-0.479 z m -3.589,0 0,4.904 0,0.48 0.478,0 2.632,0 -0.479,-0.48 0,5.886 c 0,4.728 2.081,7.123 6.183,7.123 1.658,0 3.333,-0.29 5.259,-0.908 l 0.329,-0.106 0,-0.35 0,-4.907 0,-0.684 -0.646,0.236 c -0.489,0.185 -0.979,0.265 -1.577,0.265 -1.031,0 -1.143,-1.22 -1.143,-1.749 l 0,-4.806 -0.479,0.48 3.368,0 0.477,0 0,-0.48 0,-4.904 0,-0.478 -0.477,0 -3.368,0 0.479,0.478 0,-6.447 0,-0.664 -0.634,0.213 -7.446,2.519 -0.324,0.109 0,0.345 0,3.925 0.479,-0.478 -2.632,0 -0.478,0 0,0.478 z"
   inkscape:connector-curvature="0"
   style="fill:#004990" />

	<path
   id="path5416"
   d="m 237.146,36.255 -7.033,0 0,-2.945 -0.06,0 c -0.887,2.388 -2.929,3.34 -5.022,3.34 -3.96,0 -5.413,-2.292 -5.413,-5.596 l 0,-11.84 7.452,0 0,9.816 c 0,0.974 0,2.317 1.297,2.317 1.33,0 1.33,-1.344 1.33,-2.317 l 0,-9.816 7.449,0 0,17.041 z"
   inkscape:connector-curvature="0"
   style="fill:#e03a3e" />

	<path
   id="path5418"
   d="m 237.146,35.773 -7.033,0 0.479,0.481 0,-2.944 0,-0.479 -0.479,0 -0.06,0 -0.335,0 -0.112,0.312 c -0.974,2.634 -3.286,3.024 -4.575,3.024 -3.32,0 -4.932,-1.671 -4.932,-5.113 l 0,-11.84 -0.481,0.479 7.452,0 -0.479,-0.479 0,9.816 c 0,0.974 0,2.797 1.776,2.797 1.808,0 1.808,-1.823 1.808,-2.797 l 0,-9.816 -0.478,0.479 7.449,0 -0.481,-0.479 0,17.041 0.481,-0.482 z m 0,-17.037 -7.449,0 -0.479,0 0,0.478 0,9.816 c 0,1.27 -0.123,1.841 -0.852,1.841 -0.634,0 -0.817,-0.414 -0.817,-1.841 l 0,-9.816 0,-0.478 -0.479,0 -7.452,0 -0.476,0 0,0.478 0,11.84 c 0,3.972 2.035,6.073 5.889,6.073 2.616,0 4.611,-1.332 5.472,-3.651 l -0.449,0.313 0.06,0 -0.479,-0.479 0,2.945 0,0.479 0.479,0 7.033,0 0.478,0 0,-0.479 0,-17.041 0,-0.478 -0.479,0 z"
   inkscape:connector-curvature="0"
   style="fill:#004990" />

</g>
  </g>
</svg>
