<?xml version="1.0" encoding="utf-8"?>
<!-- Generator: Adobe Illustrator 12.0.0, SVG Export Plug-In . SVG Version: 6.00 Build 51448)  -->
<!DOCTYPE svg PUBLIC "-//W3C//DTD SVG 1.0//EN" "http://www.w3.org/TR/2001/REC-SVG-20010904/DTD/svg10.dtd" [
	<!ENTITY ns_svg "http://www.w3.org/2000/svg">
	<!ENTITY ns_xlink "http://www.w3.org/1999/xlink">
]>
<svg  version="1.0" id="Layer_1" xmlns="&ns_svg;" xmlns:xlink="&ns_xlink;" width="213" height="35" viewBox="0 0 213 35"
	 overflow="visible" enable-background="new 0 0 213 35" xml:space="preserve">
<path fill="#63B5E6" d="M200.839,27.243c-6.515,6.516-15.781,7.813-20.698,2.896c-4.916-4.913-3.616-14.186,2.896-20.7
	c6.52-6.518,15.784-7.813,20.699-2.897C208.653,11.456,207.355,20.728,200.839,27.243"/>
<rect x="6.718" y="3.561" fill="none" width="200" height="29.562"/>
<path fill="#D62025" d="M6.72,11.757h9.215c1.755,0.055,3.284,0.123,4.587,1.157c1.186,0.966,1.345,2.108,1.345,2.898
	c0,1.035-0.271,2.157-1.527,3.157c-1.348,1.072-2.828,1.125-4.588,1.16h-3.924v4.038H6.72 M11.828,14.374v3.158h2.922
	c0.273-0.018,0.569-0.018,0.845-0.087c0.775-0.192,1.228-0.756,1.228-1.51c0-1.457-1.48-1.528-2.118-1.561H11.828z"/>
<polyline fill="#D62025" points="23.327,11.774 28.416,11.774 28.416,16.286 33.274,16.286 33.274,11.774 38.411,11.774 
	38.411,24.168 33.274,24.168 33.274,19.392 28.416,19.392 28.416,24.168 23.327,24.168 "/>
<path fill="#D62025" d="M45.333,11.774h5.797l6.026,12.394h-5.478l-0.706-1.724h-5.614l-0.706,1.724h-5.478 M48.209,15.302
	l-1.757,4.373h3.469L48.209,15.302z"/>
<path fill="#D62025" d="M57.93,11.758h8.031c1.527,0,2.988,0.068,3.97,0.386c2.144,0.7,2.783,2.388,2.783,3.581
	c0,0.473-0.069,1.579-1.232,2.49c-0.637,0.528-1.324,0.722-2.076,0.95l3.924,5.003h-5.659l-3.125-4.375h-1.505v4.375H57.93
	 M63.041,14.356v2.895h2.122c0.845,0,2.463-0.037,2.463-1.44c0-1.423-1.598-1.455-2.485-1.455H63.041z"/>
<path fill="#D62025" d="M74.292,11.774h7.278l1.986,5.722c0.363,1.229,0.43,1.51,0.659,2.636c0.298-1.528,0.391-1.844,0.753-3.039
	l1.827-5.319h7.3v12.394h-4.859v-7.165c0.022-0.91,0.047-1.141,0.135-2.193c-0.272,0.929-0.318,1.105-0.637,2.002l-2.669,7.356
	h-3.789l-2.487-6.97c-0.343-1-0.364-1.019-0.752-2.314c0.068,0.77,0.093,0.961,0.093,1.666v7.619h-4.838"/>
<path fill="#D62025" d="M101.031,11.774h5.796l6.024,12.394h-5.476l-0.708-1.724h-5.615l-0.705,1.724h-5.477 M103.909,15.302
	l-1.76,4.373h3.47L103.909,15.302z"/>
<path fill="#D62025" d="M113.636,11.757h9.217c1.76,0.055,3.288,0.123,4.59,1.157c1.186,0.966,1.345,2.108,1.345,2.898
	c0,1.035-0.274,2.157-1.53,3.157c-1.345,1.072-2.827,1.125-4.588,1.16h-3.921v4.038h-5.112 M118.748,14.374v3.158h2.919
	c0.277-0.018,0.572-0.018,0.845-0.087c0.776-0.192,1.233-0.756,1.233-1.51c0-1.457-1.484-1.528-2.122-1.561H118.748z"/>
<path fill="#D62025" d="M130.233,11.758h8.03c1.53,0,2.992,0.068,3.971,0.386c2.146,0.7,2.784,2.388,2.784,3.581
	c0,0.473-0.071,1.579-1.229,2.49c-0.641,0.528-1.327,0.722-2.079,0.95l3.925,5.003h-5.658l-3.128-4.375h-1.504v4.375h-5.111
	 M135.345,14.356v2.895h2.121c0.845,0,2.464-0.037,2.464-1.44c0-1.423-1.597-1.455-2.486-1.455H135.345z"/>
<rect x="146.587" y="11.774" fill="#D62025" width="5.109" height="12.394"/>
<polyline fill="#D62025" points="163.679,11.774 169.497,11.774 164.41,17.496 170.593,24.168 164.57,24.168 161.078,19.709 
	157.52,24.168 151.537,24.168 157.77,17.512 152.542,11.774 158.521,11.774 161.078,15.18 "/>
<path fill="#FFFFFF" d="M198.219,29.488h-13.12c-0.572,0-1.076-0.367-1.253-0.912c-0.174-0.54,0.015-1.136,0.475-1.472l4.03-2.935
	c0.84-0.609,2.088-0.037,2.088,1.063c0,0.41-0.184,0.808-0.537,1.067c0,0-0.524,0.385-0.764,0.556c2.717,0,4.644,0,7.291,0
	c-3.856-2.96-11.668-8.956-11.668-8.956c-0.293-0.229-0.515-0.569-0.515-1.097c0-0.672,0.613-1.267,1.258-1.267h14.764
	c0.706,0,1.29,0.604,1.29,1.316c0,0.472-0.244,0.815-0.481,1.014l-3.867,3.216c-0.561,0.467-1.389,0.391-1.856-0.17
	c-0.203-0.243-0.304-0.543-0.304-0.839c0-0.379,0.164-0.753,0.476-1.016c0,0,0.643-0.533,1.068-0.889c-2.673,0-4.371,0-7.154,0
	c3.489,2.679,10.357,7.913,11.602,8.869C200.592,27.585,198.896,29.117,198.219,29.488 M185.563,11.736h14.679
	c0.726,0,1.316,0.585,1.316,1.316c0,0.727-0.591,1.311-1.316,1.311h-14.679c-0.73,0-1.316-0.584-1.316-1.311
	C184.246,12.321,184.832,11.736,185.563,11.736z"/>
<path fill="#63B5E6" d="M196.087,8.543l2.248-1.479c0.615-0.401,1.439-0.23,1.842,0.385c0.402,0.613,0.231,1.436-0.384,1.841
	l-2.249,1.474c-0.613,0.399-1.439,0.23-1.84-0.382C195.299,9.768,195.471,8.944,196.087,8.543"/>
<path fill="#FFFFFF" d="M196.087,8.543l2.248-1.479c0.615-0.401,1.439-0.23,1.842,0.385c0.402,0.613,0.231,1.436-0.384,1.841
	l-2.249,1.474c-0.613,0.399-1.439,0.23-1.84-0.382C195.299,9.768,195.471,8.944,196.087,8.543z"/>
<polyline fill="#63B5E6" points="203.187,28.362 203.776,28.362 204.042,29.123 204.048,29.123 204.313,28.362 204.905,28.362 
	204.905,29.503 204.525,29.503 204.525,28.64 204.523,28.64 204.201,29.503 203.892,29.503 203.568,28.64 203.564,28.64 
	203.564,29.503 203.187,29.503 "/>
<path fill="#63B5E6" d="M206.313,28.771c-0.021-0.113-0.142-0.174-0.312-0.174c-0.257,0-0.358,0.168-0.358,0.336
	c0,0.17,0.102,0.339,0.358,0.339c0.188,0,0.298-0.079,0.312-0.209h0.403c-0.024,0.293-0.313,0.463-0.706,0.463
	c-0.464,0-0.768-0.261-0.768-0.593c0-0.329,0.304-0.591,0.768-0.591c0.335,0,0.694,0.154,0.706,0.429"/>
</svg>
